<?xml version="1.0" encoding="utf-8"?>
<!-- Generator: Adobe Illustrator 15.0.2, SVG Export Plug-In . SVG Version: 6.00 Build 0)  -->
<!DOCTYPE svg PUBLIC "-//W3C//DTD SVG 1.1//EN" "http://www.w3.org/Graphics/SVG/1.1/DTD/svg11.dtd">
<svg version="1.1" id="Ebene_1" xmlns="http://www.w3.org/2000/svg" xmlns:xlink="http://www.w3.org/1999/xlink" x="0px" y="0px"
	 width="141.73px" height="141.73px" viewBox="0 0 141.73 141.73" enable-background="new 0 0 141.73 141.73" xml:space="preserve">
<path fill="#FFFFFF" d="M39.535,83.596"/>
<rect x="21.771" y="20.46" transform="matrix(0.7071 0.7071 -0.7071 0.7071 70.2395 -29.862)" fill="#39676A" width="98.789" height="98.786"/>
<polygon fill="#235052" points="71.166,139.707 7.249,75.5 53,75.5 57,79 62,75.5 135.25,75.5 "/>
<path fill="#FFFFFF" d="M39.535,63.767"/>
<path fill="#FFFFFF" d="M56.02,53.171c-8.471-0.184-18.093-3.152-20.136,14.416c-2.86,1.984-5.077,3.677-5.077,5.662
	s0,6.428,0,7.854c0,1.428,0.116,3.41,4.026,3.41c0-6.537,6.188-9.221,9.046-9.221c4.106,0,9.457,2.275,9.457,9.221
	c11.264,0,21.829,0,21.829,0c-0.215-1.645,0.787-8.76,8.521-8.922c7.84,0,21.264-0.027,21.264-0.027v-8.677v-22.82
	c0,0-40.7,0-43.56,0c-2.859,0-2.918,1.108-2.918,3.502c0,2.393,0.059,22.177,0.059,26.323c0,1.867-0.468,2.568-1.206,2.568
	c-0.74,0-1.401-0.312-1.401-2.453C55.922,71.867,56.02,53.171,56.02,53.171z"/>
<path fill="#246C6D" d="M51.332,56.702c-3.69,0-9.718-0.99-11.113,11.157c7.469,0,11.113,0,11.113,0V56.702z"/>
<circle fill="#FFFFFF" cx="44.074" cy="84.727" r="6.868"/>
<ellipse fill="#224E4C" cx="44.133" cy="84.609" rx="2.957" ry="3.016"/>
<circle fill="#FFFFFF" cx="84.229" cy="84.727" r="6.867"/>
<ellipse fill="#224E4C" cx="84.286" cy="84.609" rx="2.956" ry="3.016"/>
<path fill="#FFFFFF" d="M90.557,77.859c0,0,3.254,3.072,3.031,6.652c6.924,0,6.768,0,8.17,0c1.4,0,3.191-0.291,3.191-1.887
	s0-4.766,0-4.766H90.557z"/>
<g>
	<path fill="#256761" d="M91.129,133.295l-2.279,2.277l-1.602-1.604l6.486-6.486l1.604,1.602l-2.305,2.307l6.838,6.838l-1.904,1.902
		L91.129,133.295z"/>
	<path fill="#256761" d="M111.248,118.236c2.779,2.779,2.779,6.109,0.301,8.588c-2.492,2.494-5.861,2.078-8.277-0.336
		c-2.531-2.531-2.793-6.049-0.316-8.529C105.551,115.365,108.906,115.893,111.248,118.236z M105.25,124.434
		c1.666,1.664,3.607,2.055,4.885,0.775c1.287-1.287,0.801-3.254-0.84-4.895c-1.529-1.527-3.545-2.117-4.861-0.801
		C103.133,120.814,103.607,122.795,105.25,124.434z"/>
	<path fill="#256761" d="M115.275,105.941l4.846,4.846c1.467,1.467,2.77,1.641,3.732,0.68c1.002-1.004,0.852-2.256-0.65-3.76
		l-4.846-4.848l1.902-1.9l4.732,4.732c2.607,2.604,2.531,5.158,0.326,7.363c-2.129,2.127-4.559,2.178-7.236-0.502l-4.709-4.709
		L115.275,105.941z"/>
	<path fill="#256761" d="M127.029,94.416c0.514-0.715,1.34-1.691,2.365-2.719c1.254-1.254,2.316-1.941,3.395-2.068
		c0.916-0.111,1.791,0.215,2.566,0.992c1.066,1.062,1.041,2.566,0.578,3.555l0.035,0.037c0.828-0.352,1.705-0.125,2.693,0.439
		c1.229,0.699,2.58,1.553,3.068,1.715l-1.953,1.953c-0.377-0.123-1.266-0.588-2.541-1.391c-1.303-0.826-1.941-0.738-2.744,0.039
		l-0.562,0.564l3.316,3.316l-1.891,1.891L127.029,94.416z M132.551,96.154l0.752-0.752c0.951-0.951,1.041-1.99,0.301-2.729
		c-0.766-0.764-1.691-0.639-2.566,0.236c-0.465,0.465-0.703,0.752-0.803,0.928L132.551,96.154z"/>
</g>
</svg>
