<?xml version="1.0" encoding="utf-8"?>
<!-- Generator: Adobe Illustrator 15.0.2, SVG Export Plug-In . SVG Version: 6.00 Build 0)  -->
<!DOCTYPE svg PUBLIC "-//W3C//DTD SVG 1.1//EN" "http://www.w3.org/Graphics/SVG/1.1/DTD/svg11.dtd">
<svg version="1.1" id="Ebene_1" xmlns="http://www.w3.org/2000/svg" xmlns:xlink="http://www.w3.org/1999/xlink" x="0px" y="0px"
	 width="141.73px" height="141.73px" viewBox="0 0 141.73 141.73" enable-background="new 0 0 141.73 141.73" xml:space="preserve">
<rect x="21.362" y="20.406" transform="matrix(0.7071 0.7071 -0.7071 0.7071 67.5372 -28.535)" fill="#867532" width="93.701" height="93.699"/>
<path fill="#695B24" d="M68.213,133.512C46.602,111.9,34.897,100.198,20.261,85.56c12.631-8.88,26.541-12.477,47.304-12.477
	c21.03,0,35.655,3.702,48.293,12.781C99.597,102.642,88.915,112.807,68.213,133.512z"/>
<path fill="#FFFFFF" d="M67.571,86.197c-7.347-11.927-26.915-46.535,0.692-47.164C93.461,40.28,78.844,70.459,67.571,86.197z"/>
<path fill="#867532" d="M76.625,53.041c-0.053,4.769-3.965,8.591-8.731,8.537c-4.767-0.053-8.589-3.959-8.537-8.728
	c0.053-4.768,3.963-8.59,8.731-8.537C72.853,44.367,76.675,48.275,76.625,53.041z"/>
<g>
	<path fill="#867532" d="M82.153,130.084l1.839-1.837l6.594,6.596l3.237-3.236l1.548,1.546l-5.073,5.074L82.153,130.084z"/>
	<path fill="#867532" d="M102.925,117.287c2.683,2.68,2.683,5.895,0.292,8.286c-2.405,2.403-5.654,2.005-7.986-0.326
		c-2.439-2.441-2.693-5.836-0.303-8.227C97.43,114.52,100.667,115.027,102.925,117.287z M97.139,123.267
		c1.607,1.605,3.479,1.98,4.713,0.746c1.244-1.243,0.772-3.14-0.809-4.723c-1.476-1.474-3.421-2.04-4.688-0.771
		C95.098,119.775,95.557,121.685,97.139,123.267z"/>
	<path fill="#867532" d="M117.67,110.419c-0.169,0.481-0.748,1.449-1.727,2.428c-2.815,2.814-6.028,2.498-8.348,0.181
		c-2.778-2.778-2.331-6.296,0.134-8.758c0.953-0.954,1.861-1.499,2.367-1.646l1.063,1.838c-0.52,0.205-1.183,0.579-1.849,1.243
		c-1.451,1.452-1.703,3.468,0.108,5.281c1.632,1.63,3.623,1.69,5.255,0.061c0.569-0.569,1.065-1.282,1.28-1.813L117.67,110.419z"/>
	<path fill="#867532" d="M122.667,101.677l1.509,2.672l-1.897,1.896l-5.664-10.618l2.414-2.416l10.681,5.604l-1.994,1.993
		l-2.717-1.462L122.667,101.677z M123.355,98.234l-2.236-1.221c-0.628-0.338-1.378-0.797-1.981-1.159l-0.023,0.023
		c0.361,0.604,0.856,1.343,1.195,1.946l1.245,2.212L123.355,98.234z"/>
	<path fill="#867532" d="M126.284,85.953l1.837-1.834l6.595,6.595l3.239-3.237l1.545,1.545l-5.073,5.075L126.284,85.953z"/>
</g>
</svg>
