<?xml version="1.0" encoding="utf-8"?>
<!-- Generator: Adobe Illustrator 15.0.2, SVG Export Plug-In . SVG Version: 6.00 Build 0)  -->
<!DOCTYPE svg PUBLIC "-//W3C//DTD SVG 1.1//EN" "http://www.w3.org/Graphics/SVG/1.1/DTD/svg11.dtd">
<svg version="1.1" id="Ebene_1" xmlns="http://www.w3.org/2000/svg" xmlns:xlink="http://www.w3.org/1999/xlink" x="0px" y="0px"
	 width="141.73px" height="141.73px" viewBox="0 0 141.73 141.73" enable-background="new 0 0 141.73 141.73" xml:space="preserve">
<rect x="20.623" y="20.624" transform="matrix(0.7071 0.7071 -0.7071 0.7071 70.4147 -29.1665)" fill="#491C4C" width="99.581" height="99.58"/>
<path fill="none" stroke="#246C6D" stroke-width="0.25" stroke-miterlimit="10" d="M51.654,85.444"/>
<path fill="none" stroke="#246C6D" stroke-width="0.25" stroke-miterlimit="10" d="M63.012,137.269"/>
<polygon fill="#6A2470" points="70.414,0 20.998,91.412 70.414,140.828 121.604,89.867 "/>
<g>
	<path fill="#FFFFFF" d="M72.929,38.467c-15.815-2.038-17.731,6.802-17.731,7.13c3.007,0.142,6.508,0.473,6.508,0.473l-0.922,4.497
		l-6.419-0.914c0,0-0.664,2.62-0.757,3.651c3.34,0.771,6.351,1.401,6.351,1.401L59,59.276l-6.364-1.771c0,0-0.733,2.938-0.762,3.601
		c2.671,0.991,6.361,2.146,6.361,2.146l-0.908,4.218l-6.483-2.438c0,0-0.518,2.953-0.643,3.851c3.388,1.628,6.268,3.022,6.268,3.022
		l-0.97,4.724l-6.196-3.453c0,0-1.403,6.873,7.667,11.035c3.271,1.263,3.555,1.169,3.787,1.31c0.187,1.591,1.995,3.372,6.066,4.248
		c4.359,0.826,7.756,0.76,11.548-1.219c0.715-2.721,0.876-3.611,0.876-3.611s3.435-1.659,4.305-4.679
		c-1.682,0.142-3.144,0.037-3.144,0.037l1.098-4.329l3.245-0.154l0.648-2.123c0,0,0.397-1.527,0.465-2.161
		c-0.982,0.048-3.214-0.07-3.214-0.07l0.254-1.083c0,0,1.416-0.931,1.703-1.973c0.637,0.014,0.699,0.097,1.595,0.117
		c0.227-0.865,0.6-2,0.892-3.583c-0.984-0.188-1.803-0.412-1.803-0.412s-0.017-1.687-1.653-2.482
		c0.046-0.142,0.409-1.667,0.409-1.667l3.757,0.896c0,0,0.668-2.836,0.703-3.632c-2.347-0.709-2.339-0.7-3.684-1.157l0.746-3.844
		l3.666,1.348C89.237,53.987,91.847,42.114,72.929,38.467z"/>
	<g>
		<path fill="#6A2470" d="M64.303,46.667l-0.896,4.555c0,0,10.369,1.871,16.961,4.086c0.375-1.59,0.917-4.128,0.917-4.128
			S75.746,48.721,64.303,46.667z"/>
		<path fill="#6A2470" d="M62.523,55.506l-0.953,4.59c0,0,6.491,1.447,13.853,2.927c0.724,0.146,1.339-1.699,3.438-2.113
			c0.258-0.958,0.258-0.958,0.413-1.56C72.933,58.072,64.017,55.831,62.523,55.506z"/>
		<path fill="#6A2470" d="M60.768,64.216l-0.909,4.314c0,0,5.938,2.34,15.072,2.692c0.328-1.262,0.642-3.979,0.642-3.979
			S68.355,66.617,60.768,64.216z"/>
		<path fill="#6A2470" d="M58.943,73.023l-0.933,4.857c0,0,6.913,2.75,14.673,2.376c0.33-1.777,1.142-4.438,1.142-4.438
			S66.419,76.046,58.943,73.023z"/>
	</g>
	<path fill="none" stroke="#6A2470" stroke-width="0.5" stroke-miterlimit="10" d="M95.97,70.719"/>
	<path fill="#FFFFFF" d="M64.873,91.604v15.745c0,0,4.034,1.562,6.715,0.129c0-5.301,0-15.357,0-15.357S69.035,92.542,64.873,91.604
		z"/>
	<path fill="#6A2470" d="M80.871,61.248c-1.538-0.302-3.453-0.828-3.453-0.828s-5.699,3.299-2.257,8.847
		c-1.049,4.214-4.021,16.259-4.021,16.259s-0.377,0.483-2.542,0.589c-1.483,0.072-3.805-0.031-7.419-0.589
		c2.227,2.074,9.168,2.996,11.854,0.779c2.431-9.476,4.289-16.754,4.289-16.754s-1.645-1.032-1.272-4.342
		C76.544,62.41,79.455,61,80.871,61.248z"/>
	<path fill="#6A2470" d="M81.889,63.857c-2.788-1.161-5.059,2.895-1.591,4.564C78.946,64.605,81.889,63.857,81.889,63.857z"/>
	<path fill="#6A2470" d="M89.454,65.387"/>
</g>
<g>
	<path fill="#6A2470" d="M90.87,132.577c0.486-0.688,1.239-1.59,2.401-2.754c1.176-1.175,2.24-1.787,3.253-1.901
		c0.979-0.125,2.028,0.225,2.853,1.052c0.827,0.825,1.277,1.802,1.228,2.777c-0.051,1.252-0.728,2.503-1.853,3.629
		c-0.25,0.25-0.487,0.464-0.702,0.602l3.029,3.027l-1.889,1.889L90.87,132.577z M96.587,134.517c0.201-0.126,0.4-0.3,0.688-0.587
		c1.014-1.015,1.126-2.152,0.275-3.004c-0.776-0.775-1.777-0.701-2.74,0.262c-0.374,0.375-0.614,0.665-0.714,0.838L96.587,134.517z"
		/>
	<path fill="#6A2470" d="M101.897,121.548c0.514-0.713,1.34-1.689,2.366-2.715c1.25-1.251,2.315-1.938,3.393-2.065
		c0.911-0.111,1.787,0.214,2.563,0.988c1.062,1.065,1.037,2.566,0.575,3.555l0.038,0.037c0.824-0.35,1.7-0.124,2.688,0.438
		c1.228,0.702,2.578,1.553,3.065,1.714l-1.951,1.953c-0.374-0.126-1.265-0.589-2.538-1.391c-1.303-0.824-1.94-0.737-2.742,0.04
		l-0.562,0.562l3.316,3.315l-1.89,1.891L101.897,121.548z M107.416,123.286l0.752-0.749c0.949-0.952,1.037-1.989,0.299-2.727
		c-0.765-0.765-1.688-0.64-2.565,0.236c-0.462,0.464-0.7,0.751-0.8,0.926L107.416,123.286z"/>
	<path fill="#6A2470" d="M124.764,106.717c2.777,2.776,2.777,6.104,0.3,8.582c-2.488,2.489-5.854,2.077-8.27-0.338
		c-2.529-2.527-2.791-6.044-0.312-8.521C119.07,103.85,122.424,104.376,124.764,106.717z M118.771,112.908
		c1.664,1.665,3.604,2.053,4.879,0.775c1.289-1.286,0.802-3.252-0.838-4.892c-1.526-1.526-3.541-2.114-4.854-0.802
		C116.655,109.293,117.132,111.27,118.771,112.908z"/>
	<path fill="#6A2470" d="M125.772,97.699c0.588-0.812,1.426-1.802,2.377-2.751c1.615-1.616,2.965-2.365,4.367-2.565
		c1.526-0.225,3.113,0.263,4.603,1.75c1.615,1.615,2.14,3.316,2.028,4.806c-0.15,1.628-1.162,3.34-2.815,4.992
		c-0.989,0.989-1.765,1.64-2.289,2.038L125.772,97.699z M134.542,102.668c0.2-0.126,0.476-0.4,0.701-0.627
		c1.753-1.725,1.939-3.816-0.074-5.831c-1.753-1.751-3.705-1.65-5.355,0c-0.414,0.415-0.663,0.739-0.79,0.938L134.542,102.668z"/>
</g>
</svg>
